<?xml version="1.0" standalone="no"?>
<!DOCTYPE svg PUBLIC "-//W3C//DTD SVG 20010904//EN"
 "http://www.w3.org/TR/2001/REC-SVG-20010904/DTD/svg10.dtd">
<svg version="1.0" xmlns="http://www.w3.org/2000/svg"
 width="1574.000000pt" height="721.000000pt" viewBox="0 0 1574.000000 721.000000"
 preserveAspectRatio="xMidYMid meet">

<g transform="translate(0.000000,721.000000) scale(0.100000,-0.100000)"
fill="#000000" stroke="none">
<path d="M5155 6533 c-52 -7 -137 -34 -186 -59 l-48 -24 -68 32 c-95 45 -163
49 -239 14 -98 -45 -188 -49 -923 -41 -366 4 -758 8 -871 9 -190 2 -208 4
-247 24 -79 41 -202 24 -298 -41 -44 -30 -48 -28 -127 34 -70 55 -109 58 -232
19 -89 -29 -106 -31 -176 -25 -193 17 -306 -61 -325 -226 l-7 -60 -82 -38
c-94 -43 -142 -82 -185 -150 -87 -135 -106 -364 -41 -491 10 -19 36 -52 58
-73 l39 -38 -26 -62 c-23 -55 -26 -75 -25 -177 0 -98 4 -127 28 -195 34 -99
73 -169 131 -233 25 -28 45 -55 45 -62 0 -6 -53 -100 -119 -208 -352 -584
-606 -1127 -701 -1502 -46 -179 -63 -307 -64 -485 -3 -609 174 -1073 517
-1354 237 -193 583 -344 912 -396 191 -31 373 -35 1594 -35 1416 -1 1570 5
1916 75 l120 24 70 -24 c46 -16 93 -25 137 -25 61 0 69 -3 84 -25 66 -101 362
-114 515 -22 68 41 99 86 99 144 0 54 -12 79 -57 118 l-35 31 27 52 c53 102
12 198 -89 209 -26 3 -49 9 -51 13 -3 4 22 65 55 134 263 553 323 935 224
1408 -85 403 -357 1010 -635 1413 -227 330 -343 509 -332 512 34 12 133 85
155 114 53 71 60 136 26 226 -15 40 -22 82 -23 138 0 44 -5 97 -9 117 -8 36
-6 40 49 100 68 74 85 109 85 181 0 81 -25 140 -87 207 l-55 60 17 67 c28 109
4 201 -73 285 -28 30 -41 56 -46 86 -8 53 -36 109 -68 138 -72 67 -225 104
-353 87z m-3082 -94 c12 -7 52 -34 88 -60 37 -27 74 -49 83 -49 9 0 36 18 59
40 24 21 56 44 71 50 44 16 143 12 179 -7 27 -15 59 -18 197 -18 91 -1 296 -7
455 -14 322 -15 1201 -9 1315 8 37 6 88 20 114 32 37 16 63 20 106 17 54 -4
66 -9 175 -78 22 -13 26 -12 65 24 65 59 92 66 245 66 115 0 142 -3 174 -20
80 -41 114 -120 87 -206 -21 -68 -21 -69 19 -44 31 19 36 20 58 6 43 -29 71
-94 71 -166 0 -89 -22 -131 -102 -193 -70 -55 -69 -75 2 -33 25 14 56 26 70
26 54 0 131 -98 142 -182 12 -88 -30 -156 -150 -242 -64 -46 -126 -106 -110
-106 5 0 31 12 58 26 47 25 50 25 62 9 21 -29 27 -102 14 -164 -11 -55 -11
-59 14 -96 49 -72 47 -131 -7 -182 -39 -37 -174 -106 -193 -99 -7 3 -26 -8
-42 -23 -21 -22 -45 -31 -99 -41 -65 -12 -71 -15 -62 -32 13 -25 55 -23 134 7
36 13 71 22 78 19 6 -2 30 -35 52 -72 66 -110 269 -413 317 -472 60 -73 136
-205 284 -495 143 -279 178 -359 243 -550 79 -232 122 -441 137 -675 17 -277
-66 -608 -246 -978 -49 -101 -98 -196 -109 -211 -15 -20 -40 -35 -91 -51 -105
-34 -153 -68 -185 -133 l-26 -55 -57 26 c-76 34 -201 43 -267 17 -76 -28 -97
-100 -50 -170 15 -20 24 -39 23 -41 -2 -2 -51 -11 -108 -20 -58 -8 -114 -19
-125 -24 -11 -4 -130 -16 -265 -26 -225 -17 -353 -19 -1550 -16 -749 2 -1343
7 -1395 13 -272 29 -540 122 -803 278 -346 204 -512 425 -609 811 -53 208 -63
279 -69 495 -10 287 11 441 91 680 93 280 337 805 547 1175 52 91 129 228 172
306 l78 141 96 -49 c156 -78 177 -81 497 -84 318 -3 303 9 -34 25 -231 12
-308 25 -408 72 -155 73 -302 232 -346 374 -41 135 -24 307 38 369 12 12 22
13 41 6 66 -25 50 9 -25 54 -69 42 -115 89 -135 138 -25 59 -30 163 -12 241
40 169 133 261 306 301 45 11 54 16 52 32 -13 72 -12 93 8 146 13 34 34 68 53
84 31 26 33 26 149 22 111 -5 121 -4 185 23 72 29 140 36 176 18z m4178 -5266
c29 -29 -105 -87 -238 -103 -48 -6 -98 -18 -110 -26 -27 -17 -28 -13 -8 26 19
37 70 76 132 101 37 15 66 19 131 16 45 -2 87 -8 93 -14z m52 -102 c-26 -34
-124 -86 -198 -105 -68 -18 -152 -21 -191 -6 l-28 11 25 24 c19 19 55 31 173
56 131 29 153 36 190 67 l41 35 3 -28 c2 -16 -4 -39 -15 -54z m-583 -57 c72
-19 100 -32 117 -52 13 -15 23 -30 23 -34 0 -5 -29 -8 -65 -8 -59 0 -69 3
-121 40 -64 45 -109 57 -154 42 -35 -13 -40 0 -8 22 32 23 99 20 208 -10z
m-89 -70 c42 -45 98 -68 167 -69 34 0 62 -3 62 -8 0 -4 -15 -16 -32 -28 -47
-29 -173 -24 -241 10 -50 24 -117 81 -117 99 0 11 33 17 101 20 27 2 42 -4 60
-24z m665 -27 l27 -14 -44 -30 c-100 -68 -127 -75 -189 -43 -51 26 -125 26
-167 0 -18 -11 -33 -15 -33 -9 0 9 28 68 37 79 9 10 250 39 295 35 26 -2 59
-10 74 -18z m60 -83 c-18 -70 -81 -110 -197 -125 -73 -9 -176 0 -236 22 -39
13 -40 19 -9 48 36 34 100 38 176 12 77 -27 109 -22 185 30 69 47 90 50 81 13z"/>
<path d="M4920 6105 c-45 -17 -30 -22 88 -29 126 -8 225 -42 270 -92 44 -50
42 -79 -4 -94 -20 -7 -39 -8 -44 -4 -4 5 -15 34 -25 64 -23 71 -32 82 -69 78
-27 -3 -35 -11 -61 -65 l-31 -63 -44 46 c-73 75 -117 90 -155 54 -27 -26 -59
-17 -85 25 -29 46 -71 62 -127 47 -59 -16 -116 -56 -147 -103 -29 -44 -45 -48
-64 -19 -7 11 -21 20 -32 20 -12 0 -39 9 -62 21 -58 29 -109 20 -189 -36 -57
-40 -64 -42 -83 -29 -29 20 -83 17 -116 -6 l-27 -19 -24 25 c-34 37 -77 56
-121 56 -21 -1 -58 8 -81 18 -110 50 -259 -6 -310 -117 -11 -26 -29 -28 -77
-12 -32 12 -32 12 -27 65 11 105 -27 163 -98 150 -46 -9 -96 -54 -141 -127
-20 -32 -38 -59 -39 -59 -2 0 -17 13 -34 29 -17 16 -52 37 -77 47 -60 23 -78
12 -82 -50 -2 -35 -7 -46 -20 -46 -40 0 -95 -24 -143 -61 -44 -36 -53 -39 -65
-27 -12 12 -13 27 -3 91 6 42 9 83 5 92 -12 31 -142 13 -200 -28 l-29 -21 -21
26 c-31 37 -62 50 -107 44 -71 -10 -105 -46 -123 -129 -6 -27 -7 -27 -36 -12
-16 8 -45 15 -64 15 -66 0 -135 -88 -136 -173 0 -21 -3 -37 -7 -35 -117 60
-179 35 -190 -77 l-6 -58 -15 28 c-24 46 -12 179 22 248 51 104 176 195 301
218 33 6 70 13 83 15 30 6 28 22 -6 36 -36 14 -159 -10 -236 -48 -107 -52
-200 -180 -227 -312 -25 -120 19 -246 124 -359 225 -240 500 -298 1397 -297
963 1 1724 99 2051 265 160 80 259 241 259 420 0 85 -19 148 -73 234 -48 77
-89 107 -180 131 -65 17 -190 17 -237 -1z m-1696 -81 c13 -33 5 -106 -14 -144
-11 -22 -40 -61 -64 -86 -37 -38 -48 -45 -68 -39 -13 4 -26 13 -30 19 -22 33
7 157 49 207 43 50 115 75 127 43z m1445 -20 c-13 -14 -42 -35 -64 -46 -22
-11 -50 -29 -62 -41 -20 -18 -23 -18 -29 -3 -13 34 89 116 144 116 l35 0 -24
-26z m24 -107 c-16 -21 -50 -55 -76 -74 l-46 -34 -7 27 c-4 15 -3 43 2 63 7
28 16 37 42 45 17 5 49 24 70 41 l37 33 3 -30 c3 -22 -5 -43 -25 -71z m472
-17 l0 -105 -37 -20 c-20 -11 -40 -16 -45 -11 -13 13 -7 99 12 162 19 68 32
86 54 82 13 -3 16 -20 16 -108z m-195 44 c16 -19 37 -48 45 -64 l16 -30 -31 0
c-17 0 -44 -7 -61 -15 l-30 -16 -19 43 c-19 41 -27 118 -14 131 12 11 64 -16
94 -49z m-2699 15 c16 -17 29 -36 29 -43 0 -6 -11 -42 -24 -81 -14 -38 -27
-82 -30 -96 -5 -24 -9 -26 -38 -20 -39 8 -78 67 -78 119 0 63 56 152 96 152 9
0 29 -14 45 -31z m1419 21 c0 -5 -16 -10 -36 -10 -20 0 -66 -13 -104 -30 -38
-16 -78 -30 -90 -30 -18 0 -19 3 -10 20 20 38 79 59 163 60 45 0 77 -4 77 -10z
m620 -20 c0 -27 -55 -87 -102 -111 -45 -23 -96 -22 -112 3 -8 14 -4 24 24 54
47 48 96 73 148 74 35 0 42 -3 42 -20z m-1819 -54 c-14 -33 -29 -50 -53 -60
-58 -24 -109 -38 -116 -31 -13 12 33 80 74 108 42 29 106 50 112 36 2 -5 -6
-28 -17 -53z m432 28 c58 -38 99 -118 65 -128 -7 -3 -34 -7 -60 -10 -45 -5
-48 -4 -48 17 0 12 -9 42 -20 66 -11 24 -20 54 -20 68 0 21 3 23 23 18 12 -4
39 -18 60 -31z m914 9 c41 -27 54 -58 47 -117 -4 -30 -10 -59 -14 -66 -11 -17
-68 10 -107 51 l-32 34 14 53 c8 28 17 57 20 62 7 12 39 4 72 -17z m992 -43
c15 -49 11 -56 -35 -64 -19 -4 -41 -9 -49 -12 -19 -8 -29 49 -14 78 6 13 21
33 32 45 18 21 22 21 37 8 9 -9 22 -33 29 -55z m-432 39 c8 -8 6 -22 -8 -53
-11 -24 -19 -64 -19 -98 l0 -58 -49 0 c-42 0 -49 3 -55 23 -13 51 -6 77 30
109 19 17 42 44 50 59 15 30 33 36 51 18z m-706 -10 c20 -10 20 -11 3 -37 -22
-34 -35 -43 -107 -82 -65 -36 -98 -34 -141 5 -34 32 -33 41 7 49 17 4 64 22
102 41 75 36 105 41 136 24z m343 -25 c19 -18 19 -22 2 -99 -17 -81 -31 -105
-62 -105 -57 0 -69 128 -18 190 29 33 55 38 78 14z m433 -128 c7 -13 7 -30 -1
-57 -16 -52 -22 -56 -40 -20 -19 36 -21 129 -4 167 12 26 12 26 23 -22 6 -27
16 -57 22 -68z m54 69 c29 -64 24 -161 -9 -183 l-24 -15 7 70 c6 55 4 76 -9
102 -17 32 -14 71 5 71 6 0 19 -20 30 -45z m827 4 c7 -13 11 -48 10 -78 l-3
-54 -52 -18 c-28 -9 -54 -14 -58 -11 -13 13 -35 74 -35 97 0 32 36 73 73 84
41 12 49 9 65 -20z m-2558 -2 c0 -19 -29 -43 -75 -63 -22 -9 -53 -25 -68 -36
-34 -25 -45 -17 -24 16 23 35 76 72 117 84 48 14 50 14 50 -1z m559 -30 c36
-18 66 -37 68 -43 2 -6 -29 -16 -80 -23 -75 -11 -87 -11 -120 5 -20 10 -37 21
-37 26 0 4 14 23 31 43 36 41 39 40 138 -8z m-1289 7 c17 -15 38 -40 47 -57
16 -31 15 -32 -12 -52 -39 -28 -75 -69 -100 -112 -26 -47 -39 -50 -70 -19 -21
22 -25 34 -25 89 0 151 75 222 160 151z m2624 -53 c-16 -40 -17 -41 -65 -41
-42 0 -49 3 -49 19 0 11 8 22 18 26 11 3 37 18 58 34 48 36 62 22 38 -38z
m-2184 49 c0 -33 -187 -166 -206 -147 -3 3 6 27 20 55 25 50 32 54 126 85 58
19 60 19 60 7z m325 -22 c-11 -50 -30 -81 -74 -121 -41 -37 -119 -82 -128 -74
-8 9 9 74 27 105 13 20 29 31 54 36 22 4 50 21 73 45 48 48 56 49 48 9z m913
-16 c19 -24 34 -58 40 -92 6 -30 9 -56 8 -57 -1 -1 -38 5 -82 14 -79 15 -80
16 -106 61 l-26 46 56 32 c32 18 62 33 69 33 6 1 25 -16 41 -37z m485 -14 c5
-29 1 -38 -36 -71 -68 -62 -73 -63 -112 -24 l-34 34 16 42 c15 39 17 41 52 35
20 -3 47 -1 61 5 40 16 47 13 53 -21z m-1663 -69 l0 -69 -32 0 c-49 -1 -112
-33 -143 -74 -15 -20 -31 -36 -35 -36 -7 0 -34 109 -28 115 1 1 32 19 68 39
36 19 83 53 104 75 52 53 66 43 66 -50z m2291 81 c48 -26 9 -94 -85 -149 l-71
-41 -8 24 c-22 65 51 176 114 176 17 0 39 -5 50 -10z m190 -12 c10 -22 -10
-150 -25 -165 -14 -14 -28 18 -33 76 -4 46 -2 66 11 86 20 31 33 32 47 3z
m-88 -70 c2 -41 0 -81 -5 -92 -10 -18 -10 -18 -28 0 -17 18 -17 23 -2 92 8 39
19 72 22 72 4 0 10 -33 13 -72z m-1906 41 c17 -6 37 -17 43 -25 11 -12 7 -13
-21 -6 -19 4 -76 7 -127 7 -88 0 -106 5 -80 21 37 23 114 25 185 3z m153 -16
c46 -26 60 -45 60 -86 0 -16 -5 -15 -49 7 -32 17 -51 33 -55 50 -3 13 -9 31
-12 40 -8 22 1 20 56 -11z m1985 0 c22 -22 13 -82 -21 -140 -31 -54 -41 -59
-66 -37 -37 34 -39 49 -17 108 28 77 69 104 104 69z m-1645 -16 c14 -7 26 -22
28 -34 3 -20 0 -21 -27 -13 -16 4 -60 4 -97 0 -82 -10 -133 6 -134 42 0 18
196 22 230 5z m368 -10 c16 -13 35 -57 28 -65 -3 -2 -17 3 -32 13 -15 10 -41
19 -58 20 -26 2 -32 7 -34 30 -4 27 -3 28 39 21 24 -4 49 -12 57 -19z m458
-28 c22 -18 17 -33 -23 -74 -40 -41 -144 -95 -189 -98 -48 -3 -40 26 17 64 29
19 64 42 78 51 14 10 38 18 52 18 36 0 58 25 29 33 -36 9 -86 -10 -175 -69
l-28 -19 17 28 c46 69 173 107 222 66z m-2124 -14 c30 -29 58 -129 58 -203 0
-48 -1 -49 -39 -60 -53 -16 -64 -15 -95 9 -32 25 -33 38 -1 85 30 44 32 87 5
137 -27 50 -25 57 14 57 22 0 42 -8 58 -25z m823 15 c35 -13 26 -25 -38 -47
-36 -12 -81 -18 -144 -18 -109 0 -128 11 -90 49 25 25 31 26 136 26 60 0 122
-4 136 -10z m1569 -6 c13 -35 5 -102 -17 -145 -23 -44 -82 -93 -98 -83 -14 9
-10 112 6 150 16 39 69 94 90 94 7 0 16 -7 19 -16z m-2834 -9 c16 -8 36 -25
44 -36 14 -20 13 -25 -11 -56 -20 -26 -28 -51 -34 -111 -4 -42 -8 -78 -8 -80
-1 -1 -10 3 -21 10 -30 19 -52 84 -57 175 -8 111 14 136 87 98z m335 -35 c32
-62 31 -81 -1 -119 -14 -17 -27 -43 -28 -56 -1 -19 -7 -25 -23 -25 -24 0 -73
76 -73 115 0 23 75 135 90 135 5 0 21 -22 35 -50z m1927 9 c26 -34 33 -94 18
-149 l-13 -45 -18 70 c-9 39 -22 83 -28 98 -24 61 3 78 41 26z m1278 11 c0
-21 -10 -24 -47 -14 -41 11 -25 26 35 33 6 0 12 -8 12 -19z m-2152 -24 c15 -8
40 -28 55 -44 l28 -29 -103 -5 c-57 -3 -109 -7 -117 -9 -8 -2 -20 7 -27 21
-13 24 -13 25 34 39 26 7 56 20 67 27 24 17 30 17 63 0z m334 5 c28 -2 10 -29
-27 -41 -48 -16 -150 7 -168 37 -4 7 131 9 195 4z m375 -13 c20 -22 57 -128
48 -136 -11 -12 -35 10 -35 32 0 13 -11 37 -24 53 -30 37 -42 73 -23 73 7 0
23 -10 34 -22z m577 -106 c3 -150 -7 -157 -71 -49 l-50 83 39 47 c31 36 43 44
59 39 18 -7 20 -18 23 -120z m-729 99 c46 -21 101 -64 115 -92 15 -26 -34 -49
-102 -49 -59 1 -74 7 -141 65 l-47 39 27 28 c32 34 87 37 148 9z m273 -121
l-3 -35 -17 26 c-21 29 -34 110 -23 136 10 26 47 -81 43 -127z m-1212 94 l54
-16 -20 -28 c-12 -16 -25 -32 -30 -35 -12 -7 -111 76 -104 87 8 12 40 10 100
-8z m2064 12 c0 -3 -20 -15 -45 -27 -24 -12 -59 -37 -76 -56 -35 -35 -59 -43
-59 -18 0 25 53 75 95 90 39 14 85 20 85 11z m437 -10 c17 -16 -69 -126 -119
-152 -39 -20 -45 -18 -51 23 -5 31 -2 42 17 63 13 14 32 38 42 54 16 26 22 28
61 23 24 -2 47 -8 50 -11z m-2727 -11 c61 -32 91 -155 55 -225 -24 -46 -35
-36 -35 33 0 62 -1 64 -45 104 -30 27 -45 48 -45 65 0 42 20 49 70 23z m-87
-55 c14 -47 23 -63 47 -75 30 -15 30 -16 30 -105 0 -53 -4 -92 -11 -95 -6 -4
-46 29 -90 74 -44 45 -89 81 -99 81 -23 0 -35 16 -16 23 7 3 17 22 20 41 7 34
71 116 92 116 5 0 17 -27 27 -60z m930 30 c35 -10 37 -13 37 -51 0 -43 0 -43
-66 -19 -31 12 -84 60 -84 77 0 17 35 14 113 -7z m-1440 -62 l39 -55 -21 -41
c-13 -26 -21 -60 -21 -92 0 -27 -2 -50 -5 -50 -9 0 -89 52 -112 73 -21 18 -23
30 -23 107 0 70 3 90 18 102 44 39 75 28 125 -44z m953 26 c-3 -26 -6 -57 -6
-70 0 -17 -11 -29 -40 -44 -42 -21 -60 -45 -60 -80 0 -12 -4 -18 -10 -15 -35
21 12 171 71 226 44 41 53 37 45 -17z m2142 -4 c12 -24 22 -61 22 -81 0 -35
-2 -37 -72 -69 -40 -18 -79 -35 -85 -37 -10 -4 -13 13 -13 63 1 134 24 178 90
172 30 -3 38 -9 58 -48z m-2340 -8 c47 -38 49 -46 27 -120 -15 -50 -17 -52
-50 -52 -39 0 -38 -1 -25 57 10 41 3 97 -16 148 -9 22 2 16 64 -33z m2137 18
c-17 -32 -89 -90 -112 -90 -35 0 4 61 61 95 57 34 71 33 51 -5z m-1881 -61 c0
-63 -39 -136 -92 -173 -23 -16 -44 -27 -48 -24 -3 3 -2 23 2 43 5 27 16 44 45
64 41 29 69 85 69 141 1 32 2 33 12 15 7 -11 12 -41 12 -66z m603 42 c67 -41
110 -165 84 -244 -21 -64 -30 -50 -28 44 l2 91 -51 46 c-77 70 -81 107 -7 63z
m-280 -14 c74 -39 64 -89 -21 -107 -87 -18 -222 15 -250 62 -12 20 14 54 48
62 48 10 191 -1 223 -17z m1026 5 c24 -26 57 -103 57 -134 0 -47 -9 -58 -51
-58 -32 0 -48 8 -83 40 -23 22 -50 58 -59 80 -16 41 -16 41 9 50 36 14 41 13
48 -12 3 -13 18 -31 33 -40 19 -12 31 -30 38 -60 14 -54 31 -51 27 5 -3 33
-11 49 -38 75 -33 32 -41 52 -27 65 11 12 29 8 46 -11z m-732 -113 c12 -22 12
-149 0 -149 -5 0 -23 16 -40 35 -32 37 -61 118 -61 172 l0 34 46 -37 c25 -20
49 -45 55 -55z m370 43 l31 -27 -25 -43 -24 -43 -56 62 c-31 34 -54 66 -51 70
3 5 25 9 49 9 35 0 52 -6 76 -28z m712 9 c17 -17 -22 -78 -88 -138 -63 -56
-73 -61 -128 -68 -32 -3 -61 -4 -64 -1 -10 9 62 121 103 162 23 22 57 46 76
52 34 11 86 8 101 -7z m191 -18 c4 -21 9 -50 12 -65 9 -44 -13 -33 -31 16 -16
42 -14 86 5 86 4 0 11 -17 14 -37z m-1432 5 c9 -7 19 -27 23 -44 6 -30 3 -33
-47 -61 -29 -16 -63 -35 -75 -43 -28 -18 -66 -2 -87 38 l-15 30 50 6 c53 7 99
40 99 71 0 18 30 20 52 3z m412 -59 c37 -39 65 -76 63 -82 -6 -19 -96 -20
-144 -2 -45 18 -47 20 -58 108 l-6 47 39 0 c36 0 46 -6 106 -71z m304 22 c10
-67 -80 -186 -136 -179 -23 2 -28 9 -30 37 -5 47 23 115 60 146 41 35 101 32
106 -4z m666 -39 c12 -33 13 -44 4 -47 -34 -10 -193 -43 -197 -40 -2 2 16 27
40 55 41 49 116 96 130 81 3 -3 13 -25 23 -49z m-2695 34 c38 -20 86 -76 116
-136 l25 -50 -62 1 c-35 0 -90 8 -123 17 -64 18 -71 28 -74 110 -2 61 56 90
118 58z m954 -8 c56 -22 58 -24 53 -52 -8 -40 -106 -149 -155 -170 -51 -24
-123 -15 -146 17 -22 32 -19 45 14 52 50 11 105 59 137 119 16 31 31 56 34 56
2 0 31 -10 63 -22z m-764 -74 c12 -39 32 -79 48 -96 l28 -29 -39 3 c-22 2 -42
9 -46 18 -3 8 -23 47 -43 86 -20 40 -33 74 -30 78 4 3 19 6 34 6 26 0 30 -5
48 -66z m59 42 c39 -21 152 -146 152 -169 0 -4 -15 -7 -33 -7 -23 0 -40 8 -55
25 -12 14 -29 25 -37 25 -15 0 -38 38 -60 101 -15 43 -10 47 33 25z m842 -46
c11 -21 29 -44 40 -50 26 -14 25 -28 -5 -73 l-26 -37 -86 0 -86 0 43 46 c23
25 53 70 67 100 13 30 26 54 29 54 2 0 13 -18 24 -40z m1093 -52 c10 -11 15
-23 13 -26 -8 -7 -216 -39 -221 -34 -3 3 13 24 35 48 22 24 42 54 46 68 l6 24
51 -29 c29 -17 60 -40 70 -51z m-1568 37 c14 -13 25 -30 25 -37 1 -7 5 -33 9
-57 l9 -44 -97 7 c-139 11 -154 33 -71 110 57 53 88 59 125 21z m775 -31 c18
-26 49 -56 69 -68 l36 -21 -75 -6 c-135 -12 -260 -15 -260 -7 0 30 143 148
180 148 9 0 32 -21 50 -46z m249 -10 c27 -11 41 -23 46 -41 3 -14 5 -26 3 -28
-8 -7 -138 -14 -138 -8 0 17 33 93 41 93 5 0 26 -7 48 -16z m176 -22 c6 -4 16
-15 24 -24 12 -17 9 -18 -53 -18 -58 0 -66 2 -66 19 0 11 6 22 13 24 19 8 71
8 82 -1z"/>
<path d="M4710 4699 c-532 -74 -1266 -137 -1634 -140 -67 -1 -150 -4 -186 -8
-64 -7 -64 -7 -27 -15 60 -13 742 0 907 18 252 26 485 55 815 102 365 51 365
51 365 64 0 13 2 13 -240 -21z"/>
<path d="M1687 4033 c-4 -3 -7 -15 -7 -27 0 -20 0 -20 15 0 8 10 15 22 15 27
0 9 -14 9 -23 0z"/>
<path d="M4837 3896 c-3 -8 -3 -17 0 -20 7 -7 33 13 33 25 0 15 -27 10 -33 -5z"/>
<path d="M3615 3853 c-44 -1 -321 -10 -615 -18 -510 -16 -589 -21 -652 -46
-28 -11 -38 -42 -18 -54 18 -11 10 -58 -16 -92 -30 -39 -89 -72 -159 -87 l-50
-11 -12 -235 c-7 -129 -24 -411 -38 -626 -33 -514 -35 -464 24 -502 27 -18 65
-50 86 -73 36 -40 37 -43 31 -98 -3 -31 -8 -73 -12 -93 -6 -35 -4 -37 34 -57
23 -12 80 -27 129 -36 89 -15 589 -66 827 -85 166 -13 537 -13 691 0 138 12
349 38 369 46 8 3 22 26 31 52 38 103 104 162 181 162 17 0 38 6 49 13 20 15
19 29 -8 192 -23 131 -37 495 -37 931 l0 382 -47 7 c-69 10 -104 27 -140 68
-30 34 -73 145 -73 187 0 38 -32 59 -105 70 -64 9 -267 10 -470 3z m525 -95
c24 -94 43 -141 73 -180 44 -57 76 -78 139 -93 l53 -12 -3 -359 c-4 -378 7
-666 34 -874 25 -191 26 -182 -22 -196 -93 -27 -139 -67 -178 -156 -29 -66
-18 -61 -206 -84 -393 -47 -1082 -20 -1580 61 -237 39 -210 24 -210 112 0 65
-4 83 -32 135 -17 33 -44 69 -60 81 -16 12 -40 31 -53 42 l-24 20 24 315 c27
339 44 663 45 828 0 73 4 104 13 107 140 49 179 75 208 140 10 22 19 54 19 72
0 30 2 31 48 37 38 5 419 25 722 39 36 2 271 4 522 5 l457 2 11 -42z"/>
<path d="M2250 2790 l0 -690 1010 0 1010 0 0 690 0 690 -1010 0 -1010 0 0
-690z m568 423 l-3 -248 -272 -3 -273 -2 0 250 0 250 275 0 275 0 -2 -247z
m1437 -3 l0 -245 -550 0 -550 0 -3 235 c-1 129 0 240 3 247 3 11 115 13 552
11 l548 -3 0 -245z m-1435 -855 l0 -235 -275 0 -275 0 0 235 0 235 275 0 275
0 0 -235z m1440 0 l0 -235 -555 0 -555 0 0 235 0 235 555 0 555 0 0 -235z"/>
<path d="M4871 3826 c-9 -11 -9 -15 1 -19 16 -5 48 10 48 23 0 15 -36 12 -49
-4z"/>
<path d="M1896 3651 c-3 -5 1 -12 10 -15 20 -8 29 -1 19 13 -8 13 -22 14 -29
2z"/>
<path d="M1852 3604 c2 -11 11 -20 22 -22 13 -3 17 1 14 14 -2 11 -11 20 -22
22 -13 3 -17 -1 -14 -14z"/>
<path d="M1190 3391 c0 -37 19 -71 40 -71 25 0 25 2 -5 50 -28 45 -35 49 -35
21z"/>
<path d="M1250 3392 c0 -24 13 -42 32 -42 11 0 18 5 16 12 -6 16 -48 43 -48
30z"/>
<path d="M5640 2807 c0 -14 20 -37 32 -37 15 0 8 38 -8 44 -22 8 -24 8 -24 -7z"/>
<path d="M5560 2781 c0 -21 25 -46 34 -33 9 15 -5 52 -20 52 -8 0 -14 -8 -14
-19z"/>
<path d="M1220 2580 c0 -13 37 -50 50 -50 13 0 13 16 0 41 -11 20 -50 27 -50
9z"/>
<path d="M1160 2550 c0 -13 40 -53 47 -47 8 8 -15 44 -32 51 -8 3 -15 1 -15
-4z"/>
<path d="M5220 2056 c0 -8 5 -18 10 -21 6 -3 10 1 10 9 0 8 -4 18 -10 21 -5 3
-10 -1 -10 -9z"/>
<path d="M5120 2022 c0 -12 7 -25 15 -29 27 -10 30 6 7 30 l-22 21 0 -22z"/>
<path d="M1072 1958 c-14 -14 -16 -38 -4 -38 12 0 32 23 32 37 0 16 -12 17
-28 1z"/>
<path d="M1122 1906 c-15 -33 -11 -44 7 -22 7 8 11 23 9 32 -2 14 -6 11 -16
-10z"/>
<path d="M2017 1292 c-21 -23 -21 -32 -3 -32 7 0 21 11 30 25 13 20 14 25 3
25 -8 0 -21 -8 -30 -18z"/>
<path d="M4210 1277 c0 -14 20 -37 32 -37 15 0 8 38 -8 44 -22 8 -24 8 -24 -7z"/>
<path d="M4120 1247 c0 -7 6 -22 14 -33 22 -28 41 -6 20 24 -17 24 -34 29 -34
9z"/>
<path d="M2072 1228 c-7 -7 -12 -16 -12 -20 0 -15 27 -8 45 12 18 19 17 20 -1
20 -11 0 -25 -5 -32 -12z"/>
<path d="M10450 5117 c-30 -7 -73 -22 -95 -33 l-40 -21 -55 26 c-65 30 -136
33 -174 8 -49 -33 -224 -40 -721 -32 -253 5 -525 9 -605 10 -120 1 -151 4
-179 19 -48 26 -126 17 -195 -23 l-53 -30 -53 40 c-59 44 -92 49 -161 22 -26
-9 -91 -18 -161 -22 -97 -5 -122 -10 -145 -27 -43 -32 -70 -79 -78 -135 -7
-49 -8 -51 -61 -74 -83 -37 -121 -71 -154 -139 -70 -142 -61 -297 22 -383 l31
-32 -17 -41 c-52 -130 -9 -332 93 -443 23 -24 41 -47 41 -50 0 -2 -63 -114
-141 -248 -167 -288 -235 -421 -341 -669 -151 -351 -192 -574 -163 -877 46
-488 220 -770 593 -962 123 -62 304 -124 432 -146 144 -26 374 -32 1190 -33
920 -2 1148 8 1406 59 97 20 104 20 135 4 18 -10 60 -20 93 -22 38 -4 69 -12
81 -23 63 -55 177 -74 285 -46 83 21 137 57 157 103 19 46 10 79 -32 118 -33
31 -33 32 -14 56 21 28 25 105 6 130 -17 23 -52 39 -81 39 -14 0 -26 2 -26 4
0 2 27 62 60 134 124 274 169 440 177 652 9 228 -34 440 -143 717 -86 219
-268 560 -377 706 -33 45 -83 118 -111 162 -27 44 -64 102 -83 129 l-34 49 51
29 c94 53 131 148 91 231 -15 30 -19 53 -15 75 3 17 1 54 -6 82 l-12 51 45 47
c24 27 50 65 57 86 21 65 -3 141 -67 208 -33 34 -35 39 -24 69 26 74 7 165
-48 224 -15 17 -33 53 -40 80 -7 28 -24 62 -38 77 -57 60 -195 90 -303 65z
m-2178 -97 c31 -22 65 -40 75 -40 9 0 32 14 50 32 28 27 42 32 91 36 42 3 68
-1 91 -12 24 -13 54 -16 129 -14 53 1 259 -3 457 -9 224 -8 454 -9 610 -4 222
7 258 11 319 31 61 21 73 22 113 12 25 -7 60 -24 77 -37 18 -14 36 -25 41 -25
4 0 24 15 45 34 35 31 42 33 131 39 107 8 160 -2 195 -34 34 -32 50 -88 35
-130 -16 -46 -14 -51 12 -34 21 13 25 13 46 -1 44 -31 64 -118 41 -181 -6 -15
-34 -49 -63 -76 -47 -42 -43 -54 8 -20 31 21 59 15 92 -19 42 -45 53 -70 53
-118 0 -59 -21 -92 -98 -153 -37 -30 -74 -62 -82 -72 -13 -15 -8 -15 29 4 23
12 46 19 49 16 4 -4 7 -46 7 -93 1 -69 5 -93 20 -116 25 -37 24 -89 0 -117
-22 -24 -126 -79 -150 -79 -8 0 -24 -9 -35 -20 -11 -11 -37 -23 -58 -26 -54
-9 -71 -19 -54 -36 10 -10 25 -8 78 10 36 12 69 20 73 17 5 -2 30 -40 57 -82
42 -69 146 -221 256 -376 69 -96 301 -572 347 -710 71 -217 94 -346 95 -532 1
-234 -34 -376 -160 -649 -86 -188 -102 -211 -156 -224 -70 -18 -141 -77 -160
-133 -2 -6 -22 -2 -48 10 -83 38 -225 23 -244 -24 -11 -31 -6 -62 15 -89 12
-15 20 -28 18 -30 -12 -9 -238 -39 -396 -52 -187 -15 -260 -15 -1543 -11 -544
2 -614 4 -690 20 -356 77 -672 262 -816 478 -60 90 -98 183 -134 329 -69 281
-67 555 5 805 49 170 223 556 367 815 87 157 230 414 233 418 1 1 34 -13 72
-33 103 -52 178 -65 392 -65 101 0 182 2 180 4 -2 3 -90 10 -194 16 -105 6
-213 15 -241 21 -116 23 -281 153 -329 261 -40 88 -47 213 -16 283 20 44 23
47 51 42 43 -9 37 8 -15 38 -59 35 -102 86 -111 131 -12 63 1 175 26 224 41
82 88 117 193 144 35 10 51 18 48 28 -14 44 -11 79 8 116 33 64 58 76 145 69
63 -6 84 -3 142 18 39 14 80 22 94 19 14 -2 51 -23 82 -44z m3021 -3837 c29
-17 -81 -67 -168 -78 -33 -4 -68 -11 -78 -17 -45 -24 -25 28 25 63 44 31 114
49 168 42 25 -3 49 -8 53 -10z m47 -48 c0 -56 -133 -118 -241 -113 -118 6 -78
43 80 73 65 13 101 25 120 41 33 30 41 30 41 -1z m-433 -72 c69 -17 108 -47
83 -63 -30 -19 -76 -10 -120 22 -33 25 -54 33 -87 33 -46 0 -53 15 -12 26 27
7 46 5 136 -18z m-51 -65 c38 -28 55 -33 100 -33 l55 0 -26 -22 c-48 -42 -154
-27 -232 33 -47 36 -43 54 12 54 34 0 55 -8 91 -32z m463 -2 l24 -13 -35 -26
c-50 -39 -91 -51 -119 -37 -46 25 -80 29 -120 16 -44 -16 -44 -15 -24 24 13
26 21 30 58 31 23 0 60 4 82 8 60 13 107 12 134 -3z m51 -64 c0 -23 -46 -67
-83 -81 -36 -14 -171 -14 -219 0 -48 13 -48 32 -1 54 34 16 40 17 88 1 72 -22
94 -20 145 13 53 35 70 38 70 13z"/>
<path d="M10320 4813 c-55 -11 -36 -20 52 -26 106 -7 177 -30 207 -69 24 -30
27 -57 9 -63 -44 -15 -51 -10 -66 42 -22 78 -63 79 -97 3 l-19 -41 -28 30
c-16 17 -43 38 -59 47 -28 14 -33 14 -55 -1 -31 -20 -57 -13 -74 20 -8 14 -25
28 -38 32 -51 12 -137 -34 -169 -92 -11 -19 -12 -19 -30 -2 -11 9 -25 17 -32
17 -7 0 -25 7 -41 16 -36 22 -85 12 -141 -28 -35 -25 -46 -29 -61 -19 -25 15
-59 14 -85 -4 -18 -13 -22 -13 -34 1 -19 24 -65 44 -98 44 -17 0 -46 7 -65 16
-68 33 -169 -4 -211 -77 -19 -33 -22 -35 -52 -26 -33 10 -33 10 -33 73 0 57
-3 65 -25 80 -41 27 -91 2 -139 -68 l-39 -56 -40 29 c-22 16 -53 29 -69 29
-24 0 -28 -4 -28 -27 0 -38 -9 -49 -50 -57 -19 -3 -52 -20 -73 -37 -30 -24
-41 -28 -52 -19 -10 8 -11 18 -4 36 5 14 9 43 9 65 l0 39 -48 0 c-27 0 -64 -8
-85 -19 l-38 -19 -24 24 c-48 48 -135 20 -153 -49 -9 -33 -9 -33 -74 -20 -41
8 -94 -48 -103 -109 l-7 -46 -29 15 c-31 16 -83 10 -96 -10 -4 -7 -10 -34 -13
-62 l-6 -50 -13 30 c-17 41 -8 131 18 183 44 86 128 143 240 164 64 12 76 22
40 33 -59 19 -190 -28 -252 -90 -62 -64 -92 -137 -92 -225 0 -64 4 -83 30
-128 74 -135 226 -233 415 -267 114 -21 436 -37 725 -37 674 1 1272 84 1480
206 124 73 195 232 161 364 -20 79 -62 144 -115 178 -38 24 -56 28 -125 30
-45 1 -92 0 -106 -3z m-1252 -101 c5 -75 -68 -173 -118 -157 -43 14 -12 138
46 184 43 34 68 25 72 -27z m1072 38 c0 -9 -15 -21 -84 -66 -67 -44 -63 -4 5
46 41 29 79 39 79 20z m20 -71 c-12 -28 -84 -99 -102 -99 -13 0 -9 75 4 88 7
7 18 12 26 12 8 0 28 12 45 26 35 30 46 19 27 -27z m338 -35 c-4 -77 -9 -87
-45 -99 -22 -6 -23 -4 -23 47 0 67 31 141 55 131 14 -5 16 -18 13 -79z m-1108
66 c24 -8 24 -8 2 -9 -12 -1 -49 -12 -82 -26 -33 -14 -67 -25 -76 -25 -26 0 3
30 51 51 43 20 65 22 105 9z m965 -43 c19 -22 35 -43 35 -46 0 -11 -83 -32
-91 -24 -12 14 -28 81 -22 102 7 28 38 16 78 -32z m-1984 13 c18 -24 17 -27
-6 -95 -15 -43 -30 -71 -40 -73 -39 -8 -75 65 -61 121 3 13 15 36 27 51 26 33
55 31 80 -4z m1489 0 c0 -24 -61 -77 -100 -85 -23 -5 -37 -3 -48 9 -15 15 -14
19 14 47 32 32 99 60 121 52 7 -3 13 -13 13 -23z m-1320 3 c-1 -5 -9 -23 -19
-41 -13 -26 -30 -38 -69 -51 -59 -20 -66 -12 -30 34 35 45 119 86 118 58z
m306 -15 c33 -22 54 -56 54 -83 0 -11 -12 -15 -42 -15 -43 0 -43 0 -60 53 -10
30 -18 57 -18 60 0 14 35 6 66 -15z m683 -5 c23 -24 27 -34 23 -71 -3 -26 -10
-46 -19 -49 -21 -8 -59 12 -79 42 -14 22 -15 32 -5 65 14 49 40 53 80 13z
m709 2 c14 -31 16 -65 3 -65 -5 0 -23 -3 -40 -6 -29 -6 -31 -5 -31 23 0 32 24
73 44 73 7 0 18 -11 24 -25z m-832 1 c19 -14 18 -15 -6 -41 -31 -33 -91 -65
-122 -65 -30 1 -76 36 -63 48 6 5 33 17 60 26 28 9 61 23 75 31 31 18 32 18
56 1z m527 8 c3 -4 0 -19 -8 -35 -8 -15 -15 -48 -15 -74 l0 -45 -39 0 c-36 0
-39 2 -44 33 -4 25 0 37 18 53 12 11 30 33 40 47 17 26 35 34 48 21z m-274
-23 c10 -7 12 -21 8 -53 -9 -67 -24 -98 -46 -98 -43 0 -56 88 -20 134 22 27
35 31 58 17z m371 -70 c15 -53 12 -76 -11 -102 l-20 -24 4 50 c3 32 0 60 -9
77 -17 33 -9 64 12 47 8 -6 18 -28 24 -48z m-52 -73 c-6 -16 -14 -28 -19 -28
-13 0 -30 77 -23 107 12 49 17 48 34 -3 12 -36 14 -56 8 -76z m652 96 c14 -35
12 -80 -2 -91 -7 -6 -27 -15 -44 -21 -31 -10 -32 -9 -49 29 -17 36 -17 40 -1
64 31 47 82 57 96 19z m-2411 -25 c17 -17 31 -36 31 -43 0 -8 -19 -33 -42 -58
-24 -25 -50 -55 -59 -68 l-16 -23 -21 21 c-34 34 -28 141 10 181 27 30 61 26
97 -10z m525 18 c-5 -13 -124 -81 -130 -74 -7 7 30 50 60 68 36 22 78 26 70 6z
m414 -13 c29 -14 52 -29 52 -34 0 -8 -94 -25 -123 -22 -10 1 -27 8 -38 16 -19
13 -19 13 2 40 26 33 42 33 107 0z m985 -31 c-8 -23 -16 -29 -46 -31 -28 -2
-37 1 -37 12 0 8 8 17 19 21 10 3 26 15 36 25 24 27 40 11 28 -27z m-1613 28
c0 -14 -66 -69 -110 -91 -22 -11 -40 -18 -40 -15 0 3 9 23 20 45 16 32 29 42
68 54 58 18 62 18 62 7z m220 -66 c-21 -34 -93 -85 -119 -85 -9 0 -11 8 -6 28
10 41 33 72 55 72 11 0 34 13 52 29 30 27 33 28 36 10 2 -11 -6 -35 -18 -54z
m694 42 c14 -18 28 -51 32 -74 l6 -41 -63 18 c-52 14 -67 23 -82 48 l-18 31
48 25 c26 14 49 25 50 26 1 0 13 -15 27 -33z m356 -15 c0 -21 -10 -37 -41 -62
l-41 -33 -26 26 c-22 23 -25 31 -16 54 9 28 14 30 112 41 7 1 12 -10 12 -26z
m460 10 c22 -18 22 -19 6 -50 -14 -26 -95 -82 -121 -82 -3 0 -5 15 -5 33 0 53
46 112 91 116 4 1 17 -7 29 -17z m145 -51 c-15 -98 -45 -102 -45 -5 0 56 15
81 38 62 10 -9 12 -24 7 -57z m-1830 -2 l0 -54 -36 -3 c-25 -2 -50 -15 -78
-39 -23 -19 -44 -34 -46 -32 -2 2 -6 20 -10 40 -7 36 -6 37 47 67 29 17 64 42
78 57 13 14 29 24 34 22 6 -2 11 -28 11 -58z m1765 -19 c0 -58 -13 -81 -29
-52 -8 15 -8 34 1 72 13 59 28 49 28 -20z m-1403 45 c20 -8 34 -17 32 -18 -2
-2 -44 -1 -94 1 -79 4 -87 6 -70 18 25 18 87 18 132 -1z m112 -10 c28 -14 41
-33 41 -60 0 -26 -64 10 -77 44 -15 35 -7 39 36 16z m1468 -11 c8 -21 -12 -83
-37 -114 l-20 -25 -20 25 c-25 32 -25 57 0 98 22 35 66 45 77 16z m-1213 0 c9
-3 16 -14 16 -23 0 -14 -13 -16 -85 -16 -83 0 -115 11 -101 34 8 12 143 15
170 5z m266 -14 c11 -11 20 -27 20 -36 0 -14 -2 -14 -22 0 -12 9 -32 16 -44
16 -13 0 -24 8 -27 20 -4 17 0 20 24 20 16 0 38 -9 49 -20z m341 -22 c13 -20
-28 -65 -84 -92 -79 -37 -97 -41 -97 -19 1 24 68 70 145 99 18 7 17 8 -9 12
-19 2 -44 -6 -77 -27 -27 -17 -49 -27 -49 -22 0 12 42 49 70 60 30 13 90 6
101 -11z m-1574 4 c19 -12 42 -75 49 -135 l6 -55 -37 -12 c-30 -10 -42 -10
-61 1 -29 15 -30 27 -3 78 l20 40 -20 45 -20 46 27 0 c15 0 32 -4 39 -8z m623
-2 c11 -7 9 -11 -14 -20 -56 -21 -121 -31 -161 -24 -54 9 -59 13 -39 35 14 16
31 19 108 19 50 0 98 -4 106 -10z m1146 -16 c10 -39 -12 -99 -47 -128 -38 -32
-49 -26 -49 25 0 44 11 72 43 107 27 29 45 28 53 -4z m-2067 -8 l23 -24 -20
-29 c-11 -15 -23 -50 -26 -77 -8 -61 -13 -67 -36 -39 -18 23 -38 162 -25 183
12 19 61 11 84 -14z m226 -6 c20 -39 19 -67 -5 -97 -11 -14 -20 -32 -20 -39 0
-27 -28 -14 -50 23 -25 42 -21 68 16 112 32 38 40 39 59 1z m1409 17 c21 -16
34 -105 19 -132 -8 -13 -14 -2 -28 52 -10 37 -20 74 -23 81 -6 16 9 15 32 -1z
m950 -2 c-7 -16 -39 -20 -49 -6 -3 5 3 12 12 14 34 9 42 7 37 -8z m-1553 -43
l32 -29 -88 -6 c-84 -6 -104 -2 -105 23 0 8 81 37 107 39 13 0 37 -12 54 -27z
m210 8 c-26 -23 -41 -24 -93 -10 -66 19 -53 30 34 30 l83 -1 -24 -19z m177 1
c50 -26 89 -68 75 -82 -14 -14 -85 -23 -115 -15 -13 3 -40 22 -61 40 l-39 34
21 21 c26 26 70 27 119 2z m116 -13 c26 -64 28 -78 12 -78 -10 0 -16 9 -16 23
0 13 -9 32 -20 42 -24 22 -26 45 -4 45 8 0 21 -15 28 -32z m412 -60 c2 -64 -1
-88 -9 -88 -12 0 -77 99 -77 116 0 4 12 21 27 36 45 47 56 35 59 -64z m-336
-2 c0 -23 -3 -26 -14 -17 -17 14 -30 77 -20 93 10 16 33 -37 34 -76z m-899 62
c43 -12 47 -22 23 -49 -16 -18 -18 -17 -55 12 -56 44 -42 60 32 37z m1847 -2
c13 -13 -49 -91 -90 -112 -23 -12 -27 -12 -32 2 -10 26 -7 52 7 61 7 4 21 21
31 37 15 24 22 27 49 22 17 -3 32 -8 35 -10z m-1989 -24 c37 -37 47 -90 25
-139 l-18 -38 -5 51 c-5 42 -12 56 -39 79 -17 15 -32 35 -32 44 0 40 31 41 69
3z m1631 9 c-19 -11 -44 -28 -54 -40 -18 -19 -46 -29 -46 -15 0 33 57 73 105
73 l30 0 -35 -18z m-1712 -35 c7 -28 19 -47 31 -51 20 -6 31 -43 31 -106 0
-60 -18 -58 -81 9 -32 34 -65 62 -73 62 -18 0 -21 15 -6 25 6 3 10 14 10 25 0
18 51 80 67 80 5 0 14 -20 21 -44z m682 24 c19 -5 26 -14 28 -38 4 -36 3 -37
-41 -18 -39 16 -67 42 -67 62 0 14 3 14 80 -6z m-356 -37 c-5 -37 -14 -55 -39
-78 -18 -16 -36 -39 -41 -50 -7 -19 -8 -18 -12 5 -6 37 15 96 49 135 17 19 35
35 40 35 5 0 6 -21 3 -47z m1559 32 c20 -19 40 -82 33 -100 -4 -12 -105 -65
-122 -65 -2 0 -4 29 -4 64 0 49 5 69 21 90 23 29 50 33 72 11z m-2260 -41 c28
-40 28 -42 13 -72 -9 -17 -16 -47 -16 -67 0 -19 -2 -35 -5 -35 -10 0 -83 49
-91 61 -11 18 -5 131 8 146 21 25 60 11 91 -33z m587 -27 c0 -7 -5 -29 -11
-49 -8 -33 -14 -38 -39 -38 -28 0 -28 1 -19 33 9 29 6 61 -8 111 -4 16 3 13
36 -13 22 -18 41 -38 41 -44z m1550 66 c-1 -25 -84 -92 -97 -79 -11 10 10 38
47 64 34 23 50 28 50 15z m-1390 -56 c0 -15 -6 -42 -14 -60 -13 -33 -68 -87
-88 -87 -19 0 2 54 31 80 30 27 51 69 51 103 0 18 2 19 10 7 5 -8 10 -28 10
-43z m449 18 c39 -33 65 -103 57 -149 -10 -53 -30 -59 -23 -7 7 57 -7 94 -49
126 -32 24 -46 55 -25 55 5 0 23 -11 40 -25z m-205 -9 c78 -51 -30 -99 -145
-64 -64 19 -88 68 -41 82 36 11 161 -1 186 -18z m757 -8 c16 -21 23 -47 23
-77 1 -46 1 -46 -32 -44 -40 1 -79 34 -99 82 -16 37 -16 36 15 45 16 6 22 3
22 -8 0 -9 11 -23 25 -32 14 -9 25 -26 25 -38 0 -25 15 -52 23 -40 11 20 -7
76 -29 91 -26 17 -33 53 -10 53 8 0 25 -14 37 -32z m-579 -35 c35 -34 38 -42
38 -90 0 -29 -4 -53 -8 -53 -12 0 -37 30 -54 65 -17 34 -32 115 -21 115 4 0
24 -17 45 -37z m288 12 c17 -9 30 -20 30 -25 0 -14 -22 -60 -30 -60 -14 0 -82
79 -76 89 10 15 42 14 76 -4z m536 -22 c-4 -16 -31 -51 -63 -80 -50 -47 -61
-53 -100 -53 -23 0 -43 4 -43 8 0 15 60 96 93 125 24 21 41 27 75 27 43 0 44
-1 38 -27z m144 -2 c0 -16 3 -36 6 -45 3 -9 2 -16 -3 -16 -9 0 -33 57 -33 78
0 7 7 12 15 12 10 0 15 -10 15 -29z m-1042 -17 c3 -29 -1 -34 -47 -58 -60 -31
-72 -32 -95 -7 -22 24 -13 41 19 41 37 0 56 11 66 37 14 37 53 28 57 -13z
m283 -9 c63 -66 65 -73 26 -80 -21 -4 -48 0 -74 10 -35 14 -41 21 -47 53 -9
58 -8 62 23 62 22 0 40 -12 72 -45z m223 -8 c-2 -44 -28 -85 -68 -107 -25 -14
-28 -13 -40 3 -32 43 34 153 87 145 19 -3 22 -9 21 -41z m-1469 1 c28 -22 85
-104 85 -121 0 -11 -109 -1 -148 14 -15 6 -30 16 -34 22 -12 19 -9 82 4 95 19
19 63 14 93 -10z m685 6 c53 -21 51 -40 -10 -107 -54 -60 -85 -73 -144 -61
-29 5 -36 11 -36 29 0 18 8 26 36 35 25 9 45 27 71 66 20 30 37 54 39 54 2 0
22 -7 44 -16z m1279 -16 c6 -17 10 -32 9 -33 -6 -4 -137 -35 -148 -35 -15 0
56 83 78 92 35 14 50 8 61 -24z m-1840 -40 c9 -25 25 -56 35 -67 19 -21 19
-21 -10 -21 -27 0 -32 6 -57 63 -33 75 -33 79 -5 75 15 -2 26 -16 37 -50z m90
-6 c27 -27 54 -58 60 -70 11 -20 9 -22 -14 -22 -32 0 -101 54 -109 85 -3 13
-9 30 -12 39 -13 33 28 15 75 -32z m561 28 c0 -5 13 -24 29 -43 l30 -33 -19
-32 c-19 -30 -23 -32 -80 -32 -33 0 -60 3 -60 6 0 4 16 24 35 46 20 21 38 52
42 68 5 28 23 43 23 20z m810 -55 c8 -9 9 -19 4 -24 -9 -9 -146 -31 -153 -25
-2 2 10 19 28 39 17 20 31 42 31 51 0 12 6 11 38 -5 21 -11 44 -27 52 -36z
m-1160 35 c17 -9 40 -65 40 -97 0 -9 -19 -13 -61 -13 -63 0 -99 12 -99 33 0
21 65 78 98 86 2 1 12 -4 22 -9z m599 -51 c24 -27 42 -51 40 -53 -8 -7 -229
-14 -229 -7 0 18 114 111 135 111 5 -1 30 -23 54 -51z m166 7 c24 -10 35 -22
35 -35 0 -18 -6 -21 -50 -21 -53 0 -57 4 -38 45 13 30 10 29 53 11z m136 -26
l24 -19 -52 -1 c-39 0 -53 4 -53 14 0 13 16 22 46 25 7 0 22 -8 35 -19z"/>
<path d="M10305 3795 c-5 -2 -120 -18 -255 -34 -432 -54 -909 -91 -1157 -91
-83 0 -112 -3 -107 -11 13 -22 566 -5 821 25 328 39 716 95 727 106 10 10 -8
13 -29 5z"/>
<path d="M7937 3283 c-4 -3 -7 -11 -7 -17 0 -6 5 -5 12 2 6 6 9 14 7 17 -3 3
-9 2 -12 -2z"/>
<path d="M10250 3180 c0 -5 4 -10 9 -10 6 0 13 5 16 10 3 6 -1 10 -9 10 -9 0
-16 -4 -16 -10z"/>
<path d="M9410 3154 c-52 -2 -274 -8 -494 -14 -373 -10 -470 -18 -505 -40 -12
-7 -13 -13 -3 -35 10 -22 9 -31 -4 -55 -20 -33 -74 -66 -125 -75 l-37 -7 -6
-136 c-4 -76 -16 -272 -27 -437 -21 -334 -23 -415 -10 -415 5 0 32 -21 61 -47
l53 -47 -7 -73 c-6 -72 -5 -73 22 -87 38 -19 118 -31 417 -63 223 -23 301 -27
545 -27 207 1 316 5 398 17 62 9 117 19 122 22 5 3 20 30 33 59 29 62 58 85
117 93 23 3 44 12 47 20 3 8 -1 65 -10 127 -22 151 -28 292 -27 661 l0 315
-27 0 c-16 0 -47 9 -70 19 -47 22 -76 68 -94 151 -9 41 -16 53 -37 61 -30 12
-190 18 -332 13z m317 -46 c5 -7 15 -33 22 -58 28 -100 77 -153 156 -170 l30
-6 -3 -249 c-4 -266 10 -567 31 -703 15 -90 13 -94 -37 -106 -48 -12 -83 -43
-111 -100 -30 -62 -18 -57 -227 -77 -82 -7 -234 -10 -420 -6 -294 5 -433 17
-718 65 l-105 18 -6 71 c-4 58 -11 78 -34 108 -15 21 -41 45 -56 54 -35 20
-35 3 -9 331 10 140 22 337 26 438 l7 182 37 10 c80 22 130 74 130 136 l0 31
68 7 c196 17 572 31 933 34 212 2 279 -1 286 -10z"/>
<path d="M8380 2545 l0 -325 725 0 725 0 0 325 0 325 -725 0 -725 0 0 -325z"/>
<path d="M10275 3130 c-3 -5 3 -10 14 -10 12 0 21 5 21 10 0 6 -6 10 -14 10
-8 0 -18 -4 -21 -10z"/>
<path d="M8090 3000 c0 -5 5 -10 10 -10 6 0 10 5 10 10 0 6 -4 10 -10 10 -5 0
-10 -4 -10 -10z"/>
<path d="M8052 2968 c6 -18 28 -21 28 -4 0 9 -7 16 -16 16 -9 0 -14 -5 -12
-12z"/>
<path d="M7570 2806 c0 -23 25 -54 36 -43 6 5 -23 67 -31 67 -3 0 -5 -11 -5
-24z"/>
<path d="M7610 2811 c0 -13 29 -35 37 -28 7 8 -15 37 -28 37 -5 0 -9 -4 -9 -9z"/>
<path d="M10846 2375 c4 -8 10 -15 15 -15 5 0 9 7 9 15 0 8 -7 15 -15 15 -9 0
-12 -6 -9 -15z"/>
<path d="M10785 2370 c-7 -12 2 -30 16 -30 5 0 9 9 9 20 0 21 -15 27 -25 10z"/>
<path d="M7590 2221 c0 -5 8 -17 17 -27 20 -20 32 -1 13 21 -14 17 -30 20 -30
6z"/>
<path d="M7550 2192 c0 -5 7 -15 15 -22 8 -7 15 -8 15 -2 0 5 -7 15 -15 22 -8
7 -15 8 -15 2z"/>
<path d="M10530 1831 c0 -5 5 -13 10 -16 6 -3 10 -2 10 4 0 5 -4 13 -10 16 -5
3 -10 2 -10 -4z"/>
<path d="M10460 1808 c0 -18 18 -34 28 -24 3 4 -2 14 -11 23 -16 16 -17 16
-17 1z"/>
<path d="M7480 1751 c-7 -15 -7 -21 0 -21 12 0 25 28 17 36 -3 3 -10 -4 -17
-15z"/>
<path d="M7516 1715 c-3 -8 -1 -15 4 -15 6 0 10 7 10 15 0 8 -2 15 -4 15 -2 0
-6 -7 -10 -15z"/>
<path d="M8173 1265 c-9 -25 2 -27 22 -5 17 18 17 20 1 20 -9 0 -19 -7 -23
-15z"/>
<path d="M9792 1254 c1 -9 9 -19 16 -22 9 -3 13 2 10 14 -1 9 -9 19 -16 22 -9
3 -13 -2 -10 -14z"/>
<path d="M9732 1224 c1 -9 9 -19 16 -22 9 -3 13 2 10 14 -1 9 -9 19 -16 22 -9
3 -13 -2 -10 -14z"/>
<path d="M8215 1219 c-12 -19 5 -23 22 -6 16 16 16 17 1 17 -9 0 -20 -5 -23
-11z"/>
<path d="M12720 3764 c-25 -7 -73 -14 -108 -14 -36 0 -75 -6 -92 -15 -33 -17
-60 -61 -60 -99 0 -20 -9 -30 -42 -47 -24 -12 -54 -31 -66 -43 -79 -71 -94
-237 -28 -313 23 -26 23 -29 9 -68 -28 -78 1 -204 67 -287 l30 -36 -86 -144
c-149 -251 -285 -545 -329 -715 -58 -223 -33 -520 60 -708 92 -186 265 -319
509 -389 147 -43 255 -48 1006 -43 621 3 706 6 800 22 58 10 116 18 130 18 73
-3 137 -17 156 -34 61 -56 216 -49 281 13 29 28 30 74 1 105 -18 20 -20 26
-10 48 25 55 3 105 -46 105 -12 0 -22 4 -22 9 0 4 17 46 39 92 115 250 145
451 101 669 -48 236 -187 534 -370 795 -42 61 -86 126 -99 147 l-21 36 35 22
c54 33 68 61 61 117 -4 27 -8 70 -11 98 -3 27 -7 56 -10 63 -3 8 9 30 26 49
60 69 61 129 3 193 -31 34 -33 40 -23 69 15 43 4 92 -31 136 -17 21 -30 49
-30 62 0 34 -49 79 -101 93 -55 15 -142 8 -191 -15 -34 -17 -39 -17 -71 -1
-44 20 -79 20 -137 0 -37 -14 -94 -16 -335 -16 -425 0 -647 8 -688 23 -37 13
-54 10 -133 -22 -27 -11 -34 -10 -60 9 -42 29 -63 32 -114 16z m106 -54 c21
-16 42 -30 46 -30 4 0 24 12 45 26 31 21 45 24 78 19 146 -23 933 -33 1030
-14 109 22 135 22 166 0 35 -26 31 -26 75 4 31 21 48 25 110 25 64 0 76 -3
104 -27 28 -23 31 -31 28 -69 -3 -40 -1 -43 18 -38 31 8 54 -30 54 -89 0 -44
-4 -53 -37 -83 -20 -19 -32 -34 -27 -34 6 0 15 5 21 11 33 33 103 -33 103 -98
0 -37 -19 -60 -105 -131 l-40 -33 34 17 c43 20 53 8 48 -60 -3 -33 1 -58 12
-77 23 -41 7 -76 -49 -105 -68 -35 -135 -64 -148 -64 -7 0 -12 -4 -12 -10 0
-14 10 -13 61 5 23 9 46 12 49 8 4 -5 30 -46 60 -93 29 -47 76 -116 105 -155
56 -74 160 -263 224 -405 72 -160 110 -300 126 -470 14 -136 -35 -331 -130
-521 -51 -101 -55 -106 -96 -118 -40 -12 -91 -52 -100 -78 -3 -9 -17 -9 -57 3
-66 20 -116 12 -138 -21 -14 -21 -14 -26 0 -54 l16 -30 -32 -5 c-18 -3 -60
-10 -93 -16 -122 -20 -523 -28 -1085 -21 -538 7 -580 9 -651 29 -243 66 -439
201 -522 360 -20 38 -49 114 -64 169 -24 88 -27 116 -27 273 -1 199 7 241 80
420 68 168 127 289 246 504 61 111 112 202 113 204 2 2 25 -8 52 -21 70 -35
139 -47 266 -45 62 1 90 3 62 5 -215 14 -254 21 -315 54 -109 58 -170 149
-170 254 0 72 17 110 48 109 30 -1 28 8 -7 29 -16 9 -41 31 -55 48 -22 26 -26
40 -26 92 0 67 23 129 59 161 11 10 44 27 73 37 52 17 52 18 50 56 -2 28 3 47
18 66 19 24 28 27 88 27 37 1 81 7 97 15 47 21 78 17 121 -15z m2064 -2630 c0
-16 -80 -50 -118 -50 -18 0 -42 -5 -53 -11 -19 -10 -20 -9 -9 11 19 36 70 60
128 60 29 0 52 -4 52 -10z m40 -24 c0 -19 -55 -60 -99 -75 -40 -13 -108 -15
-115 -2 -10 15 17 28 96 46 42 9 82 23 89 31 15 18 29 18 29 0z m-274 -61 c20
-8 34 -20 32 -27 -8 -23 -46 -20 -87 8 -27 17 -49 25 -66 22 -26 -5 -35 6 -12
16 19 8 92 -2 133 -19z m-64 -36 c17 -13 46 -22 70 -23 39 -1 39 -1 18 -18
-12 -10 -33 -18 -46 -18 -46 0 -134 47 -134 72 0 16 63 8 92 -13z m326 -3 c8
-8 -9 -26 -40 -42 -27 -14 -37 -14 -70 -3 -30 10 -47 10 -69 2 -31 -12 -36 -6
-16 20 19 26 173 44 195 23z m19 -59 c-22 -34 -56 -47 -125 -47 -74 0 -110 14
-91 36 14 17 54 18 98 3 27 -10 37 -8 74 14 47 28 65 26 44 -6z"/>
<path d="M14216 3561 c-3 -4 23 -11 59 -13 66 -6 119 -29 139 -61 8 -14 8 -20
-4 -27 -22 -14 -32 -8 -43 26 -18 54 -41 57 -64 9 l-16 -34 -34 29 c-37 33
-53 36 -71 18 -9 -9 -18 -6 -40 15 -15 15 -37 27 -48 27 -26 0 -80 -34 -94
-60 -10 -19 -14 -20 -28 -7 -9 8 -31 19 -49 25 -28 9 -39 7 -76 -13 -27 -14
-54 -21 -69 -18 -14 3 -35 0 -46 -6 -15 -8 -23 -6 -36 8 -10 11 -34 21 -54 24
-20 3 -49 9 -64 12 -42 11 -78 -3 -115 -41 -46 -49 -71 -40 -75 24 -3 46 -3
47 -37 47 -29 0 -40 -7 -66 -41 -31 -41 -32 -41 -54 -22 -13 10 -34 18 -47 18
-19 0 -24 -5 -24 -25 0 -18 -5 -25 -19 -25 -10 0 -35 -11 -55 -25 -21 -14 -41
-23 -45 -21 -4 3 -5 26 -1 51 l7 45 -39 0 c-22 0 -48 -5 -59 -11 -16 -8 -25
-7 -38 5 -10 9 -28 16 -40 16 -25 0 -71 -42 -71 -64 0 -13 -4 -14 -25 -4 -34
15 -71 -11 -86 -62 -10 -34 -14 -38 -31 -29 -10 6 -28 7 -39 4 -22 -7 -43 -50
-35 -72 3 -8 1 -11 -4 -8 -6 3 -10 30 -10 58 0 93 64 165 167 188 65 15 57 35
-10 25 -109 -17 -195 -121 -185 -226 10 -102 101 -196 232 -240 90 -30 250
-43 531 -43 555 0 965 63 1082 166 46 41 83 119 83 177 0 68 -44 148 -95 171
-42 19 -149 26 -159 10z m-846 -70 c0 -28 -8 -49 -26 -70 -26 -32 -59 -41 -67
-18 -13 41 37 127 75 127 14 0 18 -8 18 -39z m728 27 c-2 -6 -21 -22 -41 -35
-28 -18 -37 -20 -37 -9 0 17 47 56 67 56 8 0 13 -5 11 -12z m22 -29 c0 -21
-50 -79 -69 -79 -6 0 -11 10 -11 23 0 16 12 32 38 49 20 14 38 26 40 27 1 1 2
-8 2 -20z m230 -38 c0 -48 -12 -71 -38 -71 -12 0 -14 10 -9 51 11 89 47 105
47 20z m-1448 17 c3 -7 -3 -34 -11 -61 -13 -37 -20 -47 -36 -45 -39 6 -45 86
-9 122 17 17 48 8 56 -16z m694 25 c-9 -9 -110 -42 -115 -37 -7 6 12 26 33 34
26 11 92 13 82 3z m635 -3 c10 -6 25 -23 34 -39 14 -29 14 -29 -18 -34 -37 -5
-47 5 -47 51 0 35 2 37 31 22z m-983 -48 c21 -28 14 -42 -22 -42 -30 0 -34 4
-40 31 -11 59 -9 63 22 44 15 -10 33 -24 40 -33z m672 40 c0 -13 -53 -59 -76
-66 -13 -4 -26 -1 -33 8 -9 11 -5 19 19 40 30 24 90 37 90 18z m-910 -11 c0
-18 -36 -49 -67 -59 -42 -14 -43 0 -4 39 28 27 71 40 71 20z m683 -11 c18 -25
10 -80 -11 -80 -22 0 -61 39 -56 56 2 8 6 21 9 29 6 21 41 19 58 -5z m268 -1
c-2 -8 -7 -32 -10 -54 -5 -34 -9 -40 -31 -40 -37 0 -38 36 -3 80 27 34 52 42
44 14z m213 5 c11 -28 6 -42 -16 -48 -32 -8 -44 8 -30 39 13 28 37 33 46 9z
m-564 -9 c0 -8 -19 -27 -42 -41 -33 -21 -47 -25 -67 -18 -39 14 -35 29 16 51
58 26 93 29 93 8z m170 -31 c0 -60 -38 -101 -54 -58 -16 42 3 94 34 94 16 0
20 -7 20 -36z m250 -51 c0 -28 -4 -43 -12 -43 -9 0 -14 20 -15 63 -2 56 -1 60
13 43 7 -11 14 -39 14 -63z m-35 -14 c-4 -10 -10 -19 -15 -19 -13 0 -23 56
-14 82 7 22 8 21 21 -10 8 -19 11 -42 8 -53z m446 54 c13 -34 6 -51 -27 -64
-21 -7 -29 -7 -36 3 -13 21 -9 50 9 70 23 25 42 22 54 -9z m-1654 -5 c13 -12
23 -26 23 -32 -1 -6 -19 -31 -41 -56 -39 -43 -41 -44 -55 -25 -17 23 -18 54
-3 92 18 48 41 54 76 21z m363 13 c0 -5 -20 -21 -45 -34 -52 -29 -59 -21 -14
17 31 26 59 34 59 17z m283 -13 l42 -22 -38 -9 c-65 -16 -108 8 -75 41 16 16
22 15 71 -10z m-281 -47 c-10 -14 -33 -34 -51 -44 l-31 -19 0 27 c0 19 8 30
32 43 17 9 38 24 47 32 25 24 28 -6 3 -39z m948 14 c-15 -18 -50 -20 -50 -2 0
7 12 20 28 29 23 15 27 15 30 2 2 -8 -2 -21 -8 -29z m-1100 25 c0 -11 -91 -72
-98 -66 -10 10 30 65 50 69 41 8 48 7 48 -3z m634 -15 c9 -13 16 -35 16 -49 0
-23 -1 -23 -40 -14 -54 14 -71 45 -40 70 30 24 45 23 64 -7z m236 -3 c0 -10
-11 -29 -25 -42 l-25 -24 -21 20 c-26 27 -16 52 24 57 18 2 35 5 40 5 4 1 7
-6 7 -16z m319 4 c9 -10 9 -20 2 -33 -11 -22 -77 -60 -87 -51 -10 11 5 57 26
78 24 24 43 25 59 6z m95 -41 c-9 -41 -15 -50 -25 -34 -13 20 -11 63 3 77 18
18 29 -6 22 -43z m-1246 8 c-3 -33 -7 -38 -30 -41 -14 -2 -38 -15 -52 -29 -29
-29 -31 -29 -39 8 -6 22 -1 29 32 47 21 12 44 29 51 37 24 29 41 18 38 -22z
m1197 -51 c-3 -3 -10 -1 -15 4 -6 6 -5 24 3 49 l12 40 3 -44 c2 -23 1 -46 -3
-49z m-945 62 l25 -15 -25 5 c-14 3 -45 6 -70 6 -33 0 -41 3 -30 10 22 14 72
11 100 -6z m78 -10 c21 -14 31 -44 14 -44 -16 0 -52 32 -52 46 0 18 10 18 38
-2z m990 -12 c2 -11 -4 -35 -13 -53 -17 -31 -17 -31 -36 -12 -17 16 -18 24 -9
49 18 47 52 57 58 16z m-818 3 c11 -13 4 -15 -53 -15 -61 0 -85 8 -70 24 13
13 110 6 123 -9z m180 -6 c7 -11 10 -22 8 -23 -7 -6 -68 25 -68 34 0 19 49 10
60 -11z m-897 -93 c-20 -40 -30 -44 -49 -18 -19 25 -17 50 7 84 l22 30 19 -30
c18 -29 18 -31 1 -66z m56 81 c6 -8 16 -37 23 -66 13 -57 6 -71 -38 -71 -36 0
-48 24 -29 54 17 25 16 39 0 79 -5 13 -2 17 13 17 11 0 24 -6 31 -13z m415 4
c8 -13 -50 -31 -99 -31 -48 0 -60 7 -44 27 13 15 134 19 143 4z m651 -2 c13
-20 -42 -65 -102 -83 -16 -5 -23 -3 -23 6 0 14 21 30 80 60 24 13 29 18 15 18
-11 0 -35 -9 -52 -20 -37 -22 -45 -11 -10 13 25 18 83 22 92 6z m135 -23 c0
-43 -42 -98 -60 -79 -16 15 -4 64 21 92 28 30 39 26 39 -13z m-1411 10 c8 -10
7 -22 -4 -49 -8 -20 -15 -46 -15 -57 0 -11 -5 -20 -10 -20 -16 0 -30 46 -30
96 0 40 2 44 24 44 13 0 29 -6 35 -14z m1128 -17 c8 -17 9 -35 3 -55 -4 -16
-9 -24 -9 -19 -1 6 -8 32 -16 58 -16 53 -1 63 22 16z m638 21 c-3 -5 -13 -10
-21 -10 -8 0 -14 5 -14 10 0 6 9 10 21 10 11 0 17 -4 14 -10z m-1061 -29 c16
-17 14 -18 -41 -24 -66 -7 -91 10 -45 30 39 17 67 16 86 -6z m151 9 c-8 -13
-75 -13 -95 0 -11 7 2 10 43 10 36 0 56 -4 52 -10z m126 -13 c47 -32 44 -51
-7 -55 -32 -2 -48 2 -70 21 -58 50 9 80 77 34z m70 -4 c17 -45 4 -62 -14 -19
-20 45 -20 46 -7 46 6 0 15 -12 21 -27z m279 -34 c0 -69 -10 -73 -42 -17 -21
36 -21 38 -3 58 33 36 45 26 45 -41z m-826 31 c5 -6 4 -16 -4 -25 -12 -14 -15
-13 -37 6 -12 13 -23 27 -23 32 0 10 50 0 64 -13z m590 4 c3 -9 6 -25 6 -37 0
-27 -16 -11 -25 26 -8 29 8 39 19 11z m-704 -14 c13 -13 20 -33 20 -57 0 -45
-14 -74 -23 -49 -4 9 -4 23 -1 31 3 8 -5 25 -20 38 -29 27 -34 57 -11 57 8 0
24 -9 35 -20z m1115 8 c-11 -6 -30 -20 -42 -31 -16 -14 -23 -16 -23 -7 0 23
32 50 59 50 24 -1 25 -1 6 -12z m245 3 c0 -14 -65 -81 -79 -81 -17 0 -13 38 7
65 17 24 72 36 72 16z m-1420 -15 c0 -7 9 -25 21 -39 15 -20 19 -38 17 -74
l-3 -48 -39 43 c-22 23 -46 42 -53 42 -16 0 -10 30 13 68 16 24 44 30 44 8z
m488 -1 c2 -2 2 -13 0 -24 -3 -21 -4 -21 -37 -4 -51 27 -54 48 -5 38 22 -4 40
-8 42 -10z m806 -1 c9 -8 16 -29 16 -45 0 -23 -7 -32 -39 -49 -32 -16 -40 -17
-45 -5 -9 23 5 89 22 103 21 16 27 15 46 -4z m-1549 -20 c15 -23 16 -33 6 -66
-7 -21 -9 -43 -6 -48 10 -16 -7 -12 -42 10 -28 17 -33 25 -33 59 0 22 3 46 6
55 10 25 50 19 69 -10z m399 -42 c-9 -37 -13 -42 -32 -42 -14 0 -17 10 -17 54
l0 54 28 -20 c22 -16 26 -24 21 -46z m81 36 c-4 -18 -17 -42 -30 -53 -13 -11
-26 -27 -29 -35 -3 -8 -4 5 -2 28 3 27 13 53 27 68 31 33 42 30 34 -8z m975
12 c-11 -21 -40 -40 -61 -40 -7 0 0 14 16 30 34 35 62 42 45 10z m-949 -52
c-13 -38 -39 -68 -58 -68 -20 0 -16 18 12 46 14 14 29 39 32 56 5 25 8 27 15
14 6 -11 6 -28 -1 -48z m333 20 c18 -25 22 -103 6 -113 -7 -4 -8 7 -4 34 6 37
3 44 -25 70 -36 33 -43 58 -12 41 11 -5 27 -20 35 -32z m-169 20 c28 -13 33
-43 9 -52 -24 -9 -80 -7 -109 4 -31 12 -43 39 -24 51 20 13 94 11 124 -3z
m530 -18 c19 -37 19 -69 0 -76 -35 -14 -106 67 -75 86 15 9 54 -32 63 -65 4
-16 5 -15 6 6 0 14 -8 34 -19 44 -11 10 -17 22 -14 26 10 16 23 9 39 -21z
m-375 -77 c0 -18 -4 -33 -10 -33 -15 0 -38 42 -46 85 l-7 40 32 -29 c23 -22
31 -39 31 -63z m180 62 c9 -10 10 -22 4 -36 -9 -19 -11 -18 -44 16 l-34 35 31
0 c17 0 36 -7 43 -15z m357 -1 c9 -25 -64 -91 -110 -100 l-39 -7 16 29 c42 77
116 121 133 78z m103 -27 c0 -24 -3 -28 -10 -17 -13 20 -13 63 0 55 6 -3 10
-21 10 -38z m-715 12 c4 -11 5 -22 3 -23 -1 -1 -20 -13 -41 -25 -36 -22 -39
-22 -57 -6 -24 21 -17 35 16 35 13 0 29 9 36 20 16 26 35 26 43 -1z m192 -11
c41 -39 42 -58 5 -58 -41 0 -72 26 -72 61 0 39 25 38 67 -3z m158 12 c9 -14
-24 -79 -47 -91 -24 -13 -38 -4 -38 25 0 47 65 98 85 66z m-1007 -16 c22 -15
52 -63 52 -83 0 -10 -58 -4 -96 10 -26 9 -40 55 -23 75 15 18 39 18 67 -2z
m467 4 c35 -16 31 -40 -15 -82 -30 -27 -49 -36 -75 -36 -19 0 -35 2 -35 4 0 2
-3 11 -6 19 -3 10 3 17 20 21 15 4 37 24 52 46 15 22 28 40 30 40 2 0 15 -5
29 -12z m876 -15 c7 -20 3 -23 -43 -33 -28 -6 -52 -9 -54 -7 -2 2 10 18 26 36
33 36 59 37 71 4z m-1261 -17 c0 -6 7 -23 14 -38 13 -25 13 -28 -2 -28 -18 0
-56 76 -46 92 7 11 34 -9 34 -26z m69 -21 c46 -50 48 -55 24 -55 -27 1 -71 41
-78 73 -10 39 6 34 54 -18z m385 18 c3 -10 11 -25 18 -35 20 -27 -6 -48 -59
-48 l-45 0 31 35 c17 20 31 42 31 50 0 21 16 19 24 -2z m528 -14 c16 -12 26
-25 21 -29 -11 -10 -103 -23 -103 -15 0 7 43 63 48 64 2 1 17 -9 34 -20z
m-764 -1 c7 -7 12 -25 12 -41 0 -29 0 -29 -47 -22 -64 9 -72 19 -43 50 25 27
59 32 78 13z m396 -22 l32 -34 -29 -6 c-46 -9 -127 -7 -127 3 0 11 70 71 83
71 5 0 23 -15 41 -34z m117 4 c32 -18 23 -40 -17 -40 -19 0 -33 3 -31 8 2 4 7
15 10 25 7 20 12 21 38 7z m94 -20 c4 -6 -7 -10 -24 -10 -17 0 -31 5 -31 10 0
6 11 10 24 10 14 0 28 -4 31 -10z"/>
<path d="M14095 2854 c-165 -24 -487 -54 -699 -64 -116 -6 -212 -13 -215 -17
-12 -12 442 7 599 26 211 26 442 60 449 66 7 7 -33 4 -134 -11z"/>
<path d="M14180 2449 c0 -5 5 -7 10 -4 6 3 10 8 10 11 0 2 -4 4 -10 4 -5 0
-10 -5 -10 -11z"/>
<path d="M13165 2419 c-218 -7 -263 -16 -245 -48 14 -27 -30 -78 -75 -87 -42
-7 -38 15 -61 -383 -15 -271 -15 -295 0 -303 9 -5 28 -19 43 -32 26 -23 31
-48 21 -111 -5 -29 42 -41 268 -64 288 -30 412 -35 567 -22 189 16 197 18 212
55 18 41 47 67 87 75 25 6 32 12 31 27 -1 10 -7 62 -13 114 -6 52 -12 214 -13
360 l-2 265 -30 3 c-42 5 -81 46 -95 100 -6 26 -17 50 -23 54 -14 9 -393 8
-672 -3z m673 -59 c22 -68 48 -98 92 -110 l40 -11 -6 -162 c-6 -145 5 -395 22
-514 6 -36 4 -43 -10 -43 -34 0 -75 -30 -92 -69 -21 -49 -22 -49 -286 -57
-213 -7 -403 3 -593 32 -140 21 -138 20 -131 56 7 36 -22 98 -60 125 l-26 19
16 205 c9 113 16 254 16 313 l0 107 38 15 c52 22 82 53 82 85 0 26 3 28 53 34
96 11 440 22 636 21 l194 -1 15 -45z"/>
<path d="M12940 1900 l0 -340 460 0 460 0 0 340 0 340 -460 0 -460 0 0 -340z
m900 295 l0 -25 -440 0 -440 0 0 25 0 25 440 0 440 0 0 -25z m0 -290 l0 -165
-440 0 -440 0 0 165 0 165 440 0 440 0 0 -165z m0 -295 l0 -30 -440 0 -440 0
0 30 0 30 440 0 440 0 0 -30z"/>
<path d="M13372 2005 c-18 -29 -28 -35 -57 -35 l-36 0 17 -32 c15 -29 15 -34
0 -65 l-16 -33 35 0 c30 0 39 -6 56 -35 12 -19 22 -35 24 -35 2 0 12 16 24 35
17 29 26 35 56 35 l35 0 -16 33 c-15 31 -15 36 0 65 l17 32 -36 0 c-30 0 -39
5 -56 35 -12 19 -22 35 -22 35 -1 0 -12 -16 -25 -35z m38 -26 c0 -5 -7 -9 -15
-9 -15 0 -20 12 -9 23 8 8 24 -1 24 -14z m-70 -33 c0 -3 -4 -8 -10 -11 -5 -3
-10 -1 -10 4 0 6 5 11 10 11 6 0 10 -2 10 -4z m99 -17 c20 -33 -3 -69 -43 -69
-42 0 -64 32 -45 66 17 32 68 33 88 3z m41 17 c0 -11 -19 -15 -25 -6 -3 5 1
10 9 10 9 0 16 -2 16 -4z m-145 -76 c3 -5 1 -10 -4 -10 -6 0 -11 5 -11 10 0 6
2 10 4 10 3 0 8 -4 11 -10z m135 0 c0 -5 -5 -10 -11 -10 -5 0 -7 5 -4 10 3 6
8 10 11 10 2 0 4 -4 4 -10z m-62 -41 c-2 -6 -8 -10 -13 -10 -5 0 -11 4 -13 10
-2 6 4 11 13 11 9 0 15 -5 13 -11z"/>
<path d="M12350 2188 c0 -9 5 -20 11 -23 17 -11 20 0 4 21 -13 17 -14 17 -15
2z"/>
<path d="M12380 2190 c0 -5 5 -10 11 -10 5 0 7 5 4 10 -3 6 -8 10 -11 10 -2 0
-4 -4 -4 -10z"/>
<path d="M14590 1900 c0 -5 5 -10 11 -10 5 0 7 5 4 10 -3 6 -8 10 -11 10 -2 0
-4 -4 -4 -10z"/>
<path d="M14546 1885 c4 -8 8 -15 10 -15 2 0 4 7 4 15 0 8 -4 15 -10 15 -5 0
-7 -7 -4 -15z"/>
<path d="M12362 1789 c2 -7 10 -15 17 -17 8 -3 12 1 9 9 -2 7 -10 15 -17 17
-8 3 -12 -1 -9 -9z"/>
<path d="M12330 1776 c0 -2 8 -10 18 -17 15 -13 16 -12 3 4 -13 16 -21 21 -21
13z"/>
<path d="M14325 1500 c3 -5 8 -10 11 -10 2 0 4 5 4 10 0 6 -5 10 -11 10 -5 0
-7 -4 -4 -10z"/>
<path d="M12760 1139 c0 -5 5 -7 10 -4 6 3 10 8 10 11 0 2 -4 4 -10 4 -5 0
-10 -5 -10 -11z"/>
<path d="M13865 1130 c3 -5 11 -10 16 -10 6 0 7 5 4 10 -3 6 -11 10 -16 10 -6
0 -7 -4 -4 -10z"/>
<path d="M13820 1121 c0 -5 5 -13 10 -16 6 -3 10 -2 10 4 0 5 -4 13 -10 16 -5
3 -10 2 -10 -4z"/>
<path d="M12795 1110 c-3 -5 -1 -10 4 -10 6 0 11 5 11 10 0 6 -2 10 -4 10 -3
0 -8 -4 -11 -10z"/>
<path d="M11600 911 c-96 -12 -160 -61 -160 -122 0 -69 60 -104 164 -97 120 8
210 73 204 146 -5 62 -82 89 -208 73z m108 -47 c29 -8 28 -20 -4 -41 -23 -14
-32 -15 -71 -4 -41 10 -50 9 -86 -8 -48 -24 -60 -19 -30 11 34 33 137 56 191
42z m37 -64 c-25 -40 -215 -72 -215 -36 0 21 23 26 110 26 57 0 81 4 90 15 14
17 26 13 15 -5z"/>
<path d="M15045 883 c-60 -33 -72 -78 -29 -112 47 -37 151 -26 202 21 29 28
30 83 3 98 -30 16 -142 12 -176 -7z m145 -22 c0 -20 -31 -33 -65 -27 -23 5
-45 2 -66 -9 -24 -13 -30 -13 -27 -3 7 22 70 48 116 48 23 0 42 -4 42 -9z m1
-45 c-15 -17 -94 -36 -122 -29 -15 4 -17 8 -8 19 8 10 30 14 66 13 29 -1 56 1
60 4 12 13 15 7 4 -7z"/>
<path d="M6695 810 c-152 -12 -247 -79 -247 -175 0 -43 23 -76 70 -103 47 -26
117 -39 126 -23 4 6 33 11 65 11 135 0 241 80 241 181 0 40 -4 51 -30 72 -25
21 -115 51 -138 45 -4 0 -43 -4 -87 -8z m160 -80 c3 -5 -12 -21 -34 -36 -34
-22 -47 -25 -78 -19 -84 16 -128 11 -171 -18 -33 -21 -42 -24 -42 -12 0 25 49
64 99 79 52 17 217 21 226 6z m1 -79 c-34 -37 -116 -64 -198 -65 -82 -1 -92 2
-82 27 9 24 32 29 140 28 86 -1 105 1 125 18 29 23 39 18 15 -8z"/>
<path d="M14621 761 c-64 -17 -97 -75 -62 -110 18 -18 34 -21 105 -21 76 0 87
3 115 26 33 28 42 73 18 92 -18 15 -134 23 -176 13z m105 -47 c-18 -10 -40
-14 -62 -9 -19 3 -43 1 -55 -5 -11 -7 -23 -9 -26 -6 -12 12 65 35 117 35 l55
0 -29 -15z m39 -24 c-24 -26 -75 -40 -125 -33 -59 8 -44 28 21 28 30 0 63 5
74 12 33 21 51 16 30 -7z"/>
<path d="M10897 710 c-20 -5 -48 -17 -61 -25 -33 -22 -58 -78 -50 -110 12 -46
38 -55 167 -55 99 0 124 3 158 20 71 37 89 120 34 156 -29 19 -191 28 -248 14z
m172 -49 c27 -17 -54 -42 -114 -35 -38 5 -62 2 -84 -9 -41 -21 -40 -2 2 20 55
29 167 42 196 24z m36 -61 c-33 -37 -132 -53 -213 -35 -40 8 -40 19 -2 35 24
10 39 10 74 0 40 -11 48 -10 97 14 56 26 75 20 44 -14z"/>
<path d="M5755 539 c-33 -5 -80 -19 -105 -32 -78 -40 -113 -135 -70 -189 34
-44 65 -50 233 -46 154 3 156 3 198 33 59 42 82 76 82 124 0 61 -23 88 -85
100 -83 16 -188 20 -253 10z m205 -77 c0 -5 -22 -19 -50 -32 -46 -22 -53 -22
-104 -10 -55 13 -69 11 -161 -25 l-20 -8 20 21 c34 35 130 61 228 62 48 0 87
-4 87 -8z m60 -41 c0 -4 -9 -20 -20 -33 -23 -30 -76 -53 -142 -63 -49 -7 -184
11 -193 25 -10 16 42 41 83 42 21 0 48 -5 60 -11 34 -18 73 -12 132 19 56 31
80 37 80 21z"/>
</g>
</svg>
